<svg xmlns="http://www.w3.org/2000/svg" xmlns:xlink="http://www.w3.org/1999/xlink" width="100" zoomAndPan="magnify" viewBox="0 0 75 74.999997" height="100" preserveAspectRatio="xMidYMid meet" version="1.0"><path fill="#d8ac49" d="M 41.101562 26.253906 L 41.101562 32.351562 L 48.777344 32.351562 L 47.703125 40.691406 L 41.101562 40.691406 L 41.101562 59.804688 L 32.730469 59.804688 L 32.730469 40.691406 L 25.558594 40.691406 L 25.558594 32.351562 L 32.730469 32.351562 L 32.730469 26.253906 C 32.730469 19.648438 38.070312 15.195312 44.671875 15.195312 C 47.578125 15.195312 49.410156 15.636719 49.410156 15.636719 L 49.410156 22.683594 L 44.671875 22.683594 C 42.710938 22.683594 41.101562 24.292969 41.101562 26.253906 Z M 41.101562 26.253906 " fill-opacity="1" fill-rule="nonzero"/><path fill="#d8ac49" d="M 37.5 75 C 16.839844 75 0 58.191406 0 37.5 C 0 16.808594 16.839844 0 37.5 0 C 58.191406 0 75 16.839844 75 37.5 C 75 58.160156 58.191406 75 37.5 75 Z M 37.5 2.054688 C 17.945312 2.054688 2.054688 17.945312 2.054688 37.5 C 2.054688 57.054688 17.945312 72.945312 37.5 72.945312 C 57.054688 72.945312 72.945312 57.054688 72.945312 37.5 C 72.945312 17.945312 57.054688 2.054688 37.5 2.054688 Z M 37.5 2.054688 " fill-opacity="1" fill-rule="nonzero"/></svg>