<svg xmlns="http://www.w3.org/2000/svg" xmlns:xlink="http://www.w3.org/1999/xlink" width="100" zoomAndPan="magnify" viewBox="0 0 75 74.999997" height="100" preserveAspectRatio="xMidYMid meet" version="1.0"><defs><clipPath id="b644dba477"><path d="M 4.875 25 L 32 25 L 32 67 L 4.875 67 Z M 4.875 25 " clip-rule="nonzero"/></clipPath><clipPath id="90a4d14bcf"><path d="M 14 19 L 70.125 19 L 70.125 74 L 14 74 Z M 14 19 " clip-rule="nonzero"/></clipPath></defs><path fill="#d8ac49" d="M 30.523438 29.230469 L 30.523438 26.441406 C 17.675781 24.617188 5.929688 34.710938 5.929688 47.898438 C 5.929688 55.230469 9.59375 61.71875 15.183594 65.640625 C 11.441406 61.640625 9.359375 56.367188 9.363281 50.886719 C 9.363281 39.109375 18.808594 29.503906 30.523438 29.230469 " fill-opacity="1" fill-rule="nonzero"/><path fill="#d8ac49" d="M 31.03125 60.785156 C 36.363281 60.785156 40.714844 56.542969 40.910156 51.257812 L 40.929688 4.074219 L 49.550781 4.074219 C 49.367188 3.089844 49.273438 2.089844 49.273438 1.085938 L 37.5 1.085938 L 37.476562 48.269531 C 37.207031 55.554688 29.394531 60.027344 23.011719 56.660156 C 24.863281 59.246094 27.851562 60.78125 31.03125 60.785156 M 65.652344 20.089844 L 65.652344 17.46875 C 62.484375 17.472656 59.382812 16.550781 56.730469 14.816406 C 59.054688 17.492188 62.1875 19.34375 65.652344 20.089844 " fill-opacity="1" fill-rule="nonzero"/><path fill="#d8ac49" d="M 56.730469 14.8125 C 54.132812 11.839844 52.703125 8.027344 52.703125 4.078125 L 49.546875 4.078125 C 50.375 8.488281 52.96875 12.367188 56.730469 14.8125 M 27.601562 38.003906 C 22.136719 38.007812 17.710938 42.433594 17.703125 47.898438 C 17.707031 51.578125 19.75 54.949219 23.007812 56.660156 C 21.792969 54.980469 21.136719 52.960938 21.136719 50.886719 C 21.140625 45.425781 25.570312 40.996094 31.03125 40.988281 C 32.050781 40.988281 33.03125 41.15625 33.953125 41.449219 L 33.953125 29.429688 C 32.617188 29.238281 31.613281 29.207031 30.523438 29.226562 L 30.523438 38.460938 C 29.578125 38.160156 28.59375 38.003906 27.601562 38.003906 " fill-opacity="1" fill-rule="nonzero"/><path fill="#d8ac49" d="M 65.652344 20.089844 L 65.652344 29.242188 C 59.542969 29.242188 53.890625 27.289062 49.269531 23.972656 L 49.269531 47.898438 C 49.269531 59.847656 39.550781 69.570312 27.601562 69.570312 C 22.984375 69.570312 18.703125 68.113281 15.183594 65.640625 C 19.273438 70.050781 25.019531 72.558594 31.03125 72.558594 C 42.980469 72.558594 52.703125 62.835938 52.703125 50.886719 L 52.703125 26.960938 C 57.476562 30.394531 63.207031 32.238281 69.082031 32.230469 L 69.082031 20.453125 C 67.902344 20.453125 66.757812 20.324219 65.648438 20.089844 " fill-opacity="1" fill-rule="nonzero"/><path fill="#1c1c1c" d="M 49.269531 47.898438 L 49.269531 23.972656 C 54.042969 27.40625 59.773438 29.246094 65.648438 29.238281 L 65.648438 20.089844 C 62.183594 19.34375 59.054688 17.492188 56.730469 14.8125 C 52.96875 12.367188 50.375 8.488281 49.546875 4.078125 L 40.929688 4.078125 L 40.910156 51.257812 C 40.710938 56.542969 36.363281 60.785156 31.03125 60.785156 C 27.851562 60.78125 24.863281 59.246094 23.011719 56.660156 C 19.75 54.953125 17.707031 51.578125 17.703125 47.898438 C 17.710938 41.25 24.175781 36.460938 30.519531 38.460938 L 30.519531 29.230469 C 18.808594 29.503906 9.363281 39.109375 9.363281 50.886719 C 9.363281 56.582031 11.578125 61.769531 15.183594 65.640625 C 18.816406 68.203125 23.15625 69.574219 27.601562 69.570312 C 39.550781 69.570312 49.269531 59.847656 49.269531 47.898438 " fill-opacity="1" fill-rule="nonzero"/><g clip-path="url(#b644dba477)"><path fill="#000000" d="M 14.578125 66.503906 C 8.503906 62.238281 4.878906 55.285156 4.878906 47.902344 C 4.878906 34.097656 17.164062 23.480469 30.667969 25.398438 C 31.1875 25.472656 31.574219 25.917969 31.574219 26.441406 L 31.574219 29.230469 C 31.574219 29.800781 31.117188 30.265625 30.546875 30.28125 C 19.445312 30.539062 10.414062 39.785156 10.414062 50.886719 C 10.414062 56.117188 12.378906 61.101562 15.949219 64.921875 C 16.320312 65.316406 16.332031 65.925781 15.976562 66.332031 C 15.621094 66.738281 15.019531 66.8125 14.578125 66.503906 Z M 6.984375 47.902344 C 6.984375 51.148438 7.757812 54.304688 9.183594 57.136719 C 8.609375 55.125 8.3125 53.023438 8.3125 50.886719 C 8.3125 38.90625 17.636719 29.03125 29.46875 28.222656 L 29.46875 27.375 C 17.539062 26.226562 6.984375 35.71875 6.984375 47.902344 Z M 6.984375 47.902344 " fill-opacity="1" fill-rule="nonzero"/></g><path fill="#000000" d="M 31.03125 61.835938 C 27.519531 61.832031 24.199219 60.125 22.15625 57.269531 C 21.871094 56.875 21.898438 56.335938 22.21875 55.96875 C 22.539062 55.597656 23.070312 55.5 23.5 55.726562 C 24.757812 56.390625 26.175781 56.742188 27.597656 56.742188 C 27.597656 56.742188 27.601562 56.742188 27.601562 56.742188 C 32.367188 56.742188 36.238281 53.015625 36.425781 48.25 L 36.445312 1.085938 C 36.445312 0.503906 36.917969 0.0351562 37.5 0.0351562 L 49.273438 0.0351562 C 49.851562 0.0351562 50.324219 0.503906 50.324219 1.085938 C 50.324219 2.023438 50.410156 2.960938 50.582031 3.882812 C 50.703125 4.527344 50.207031 5.125 49.550781 5.125 L 41.980469 5.125 C 41.960938 52.757812 41.964844 51.265625 41.960938 51.296875 C 41.742188 57.207031 36.941406 61.835938 31.03125 61.835938 Z M 27.179688 58.839844 C 32.832031 61.589844 39.601562 57.707031 39.859375 51.238281 L 39.878906 4.074219 C 39.878906 3.492188 40.347656 3.023438 40.929688 3.023438 L 48.328125 3.023438 C 48.296875 2.730469 48.269531 2.433594 48.253906 2.140625 L 38.550781 2.140625 C 38.53125 49.773438 38.53125 48.277344 38.53125 48.308594 C 38.304688 54.402344 33.21875 59.078125 27.179688 58.839844 Z M 65.394531 21.109375 C 61.742188 20.316406 58.386719 18.328125 55.9375 15.507812 C 55.59375 15.109375 55.59375 14.519531 55.9375 14.125 C 56.285156 13.730469 56.867188 13.648438 57.308594 13.9375 C 59.789062 15.558594 62.667969 16.417969 65.632812 16.417969 C 66.289062 16.429688 66.703125 16.929688 66.703125 17.46875 C 66.703125 20.378906 66.714844 20.164062 66.679688 20.3125 C 66.5625 20.855469 65.992188 21.261719 65.394531 21.109375 Z M 63.671875 18.410156 C 63.976562 18.527344 64.285156 18.632812 64.597656 18.730469 L 64.597656 18.488281 C 64.289062 18.472656 63.980469 18.445312 63.671875 18.410156 Z M 63.671875 18.410156 " fill-opacity="1" fill-rule="nonzero"/><path fill="#000000" d="M 22.519531 57.589844 C 18.90625 55.695312 16.65625 51.980469 16.652344 47.898438 C 16.660156 41.082031 22.867188 35.9375 29.46875 37.117188 L 29.46875 29.226562 C 29.46875 28.65625 29.929688 28.1875 30.503906 28.175781 C 31.707031 28.152344 32.773438 28.199219 34.101562 28.386719 C 34.621094 28.460938 35.003906 28.90625 35.003906 29.429688 L 35.003906 41.449219 C 35.003906 41.78125 34.84375 42.097656 34.574219 42.296875 C 34.304688 42.492188 33.957031 42.550781 33.636719 42.453125 C 27.914062 40.652344 22.195312 45.011719 22.1875 50.890625 C 22.1875 52.75 22.765625 54.53125 23.859375 56.042969 C 24.148438 56.4375 24.125 56.976562 23.804688 57.347656 C 23.484375 57.71875 22.953125 57.816406 22.519531 57.589844 Z M 27.601562 39.054688 C 20.511719 39.066406 16.351562 47.011719 20.253906 52.824219 C 18.90625 45.289062 25.546875 38.78125 32.902344 40.105469 L 32.902344 30.363281 C 32.460938 30.320312 32.015625 30.292969 31.574219 30.277344 L 31.574219 38.460938 C 31.574219 38.796875 31.414062 39.109375 31.144531 39.308594 C 30.871094 39.507812 30.523438 39.5625 30.203125 39.464844 C 29.359375 39.195312 28.484375 39.058594 27.601562 39.054688 Z M 56.15625 15.695312 C 52.175781 13.105469 49.386719 8.941406 48.515625 4.269531 C 48.394531 3.625 48.890625 3.023438 49.546875 3.023438 L 52.703125 3.023438 C 53.285156 3.023438 53.753906 3.496094 53.753906 4.078125 C 53.753906 7.773438 55.09375 11.339844 57.523438 14.121094 C 57.867188 14.519531 57.871094 15.105469 57.527344 15.503906 C 57.183594 15.898438 56.597656 15.984375 56.15625 15.695312 Z M 50.871094 5.128906 C 51.1875 6.269531 51.632812 7.371094 52.195312 8.402344 C 51.921875 7.335938 51.75 6.238281 51.683594 5.128906 Z M 50.871094 5.128906 " fill-opacity="1" fill-rule="nonzero"/><g clip-path="url(#90a4d14bcf)"><path fill="#000000" d="M 14.414062 66.355469 C 14.046875 65.960938 14.039062 65.355469 14.390625 64.949219 C 14.746094 64.542969 15.347656 64.472656 15.789062 64.78125 C 19.269531 67.226562 23.355469 68.519531 27.601562 68.519531 C 38.96875 68.519531 48.21875 59.269531 48.21875 47.898438 L 48.21875 23.972656 C 48.21875 23.578125 48.441406 23.21875 48.789062 23.039062 C 49.140625 22.859375 49.5625 22.890625 49.882812 23.117188 C 54.222656 26.230469 59.289062 27.964844 64.597656 28.167969 L 64.597656 20.136719 C 64.566406 19.445312 65.199219 18.914062 65.871094 19.058594 C 66.929688 19.285156 68.011719 19.402344 69.082031 19.402344 C 69.664062 19.402344 70.132812 19.871094 70.132812 20.453125 L 70.132812 32.230469 C 70.132812 32.773438 69.714844 33.28125 69.046875 33.28125 C 63.597656 33.28125 58.351562 31.785156 53.753906 28.929688 L 53.753906 50.890625 C 53.753906 63.417969 43.5625 73.609375 31.03125 73.609375 C 30.886719 73.578125 21.554688 74.058594 14.414062 66.355469 Z M 24.375 70.394531 C 37.730469 74.972656 51.652344 64.980469 51.652344 50.890625 C 51.660156 25.371094 51.628906 26.945312 51.675781 26.730469 C 51.21875 26.480469 50.769531 26.214844 50.324219 25.941406 L 50.324219 47.898438 C 50.324219 61.65625 38.105469 72.359375 24.375 70.394531 Z M 60.796875 29.890625 C 63.121094 30.640625 65.550781 31.066406 68.03125 31.160156 L 68.03125 21.472656 C 67.585938 21.445312 67.144531 21.402344 66.703125 21.339844 L 66.703125 29.242188 C 66.703125 29.820312 66.230469 30.292969 65.652344 30.292969 C 64.007812 30.292969 62.386719 30.15625 60.796875 29.890625 Z M 60.796875 29.890625 " fill-opacity="1" fill-rule="nonzero"/></g><path fill="#000000" d="M 14.578125 66.503906 C 14.519531 66.460938 14.460938 66.414062 14.414062 66.359375 C 10.480469 62.132812 8.3125 56.640625 8.3125 50.886719 C 8.3125 38.53125 18.203125 28.464844 30.496094 28.175781 C 31.105469 28.167969 31.574219 28.652344 31.574219 29.230469 L 31.574219 38.460938 C 31.574219 38.796875 31.414062 39.109375 31.144531 39.308594 C 30.875 39.507812 30.523438 39.566406 30.207031 39.464844 C 29.34375 39.191406 28.46875 39.054688 27.601562 39.054688 C 22.730469 39.058594 18.761719 43.027344 18.757812 47.902344 C 18.761719 51.195312 20.578125 54.195312 23.5 55.726562 C 23.644531 55.804688 23.769531 55.914062 23.867188 56.046875 C 25.519531 58.351562 28.199219 59.730469 31.035156 59.734375 C 35.796875 59.734375 39.671875 56.003906 39.859375 51.238281 L 39.878906 4.078125 C 39.878906 3.496094 40.347656 3.023438 40.929688 3.023438 L 49.546875 3.023438 C 50.054688 3.023438 50.488281 3.386719 50.582031 3.882812 C 51.351562 7.992188 53.800781 11.652344 57.304688 13.933594 C 57.386719 13.984375 57.460938 14.050781 57.527344 14.125 C 59.6875 16.613281 62.652344 18.367188 65.871094 19.0625 C 66.355469 19.167969 66.703125 19.59375 66.703125 20.089844 L 66.703125 29.238281 C 66.703125 29.789062 66.277344 30.292969 65.617188 30.292969 C 60.164062 30.292969 54.917969 28.792969 50.324219 25.941406 L 50.324219 47.898438 C 50.324219 60.429688 40.128906 70.621094 27.601562 70.621094 C 22.734375 70.621094 18.273438 69.105469 14.578125 66.503906 Z M 15.878906 64.84375 C 19.328125 67.246094 23.375 68.515625 27.582031 68.515625 C 39.007812 68.515625 48.21875 59.234375 48.21875 47.898438 L 48.21875 23.972656 C 48.21875 23.117188 49.1875 22.617188 49.882812 23.117188 C 54.21875 26.238281 59.285156 27.972656 64.597656 28.167969 L 64.597656 20.917969 C 61.304688 20.035156 58.292969 18.171875 56.035156 15.613281 C 52.359375 13.179688 49.726562 9.402344 48.699219 5.128906 L 41.980469 5.128906 L 41.960938 51.261719 C 41.960938 51.273438 41.960938 51.285156 41.960938 51.296875 C 41.742188 57.207031 36.941406 61.835938 31.03125 61.835938 C 27.601562 61.832031 24.359375 60.207031 22.300781 57.472656 C 18.816406 55.546875 16.65625 51.898438 16.652344 47.902344 C 16.660156 41.074219 22.878906 35.933594 29.46875 37.121094 L 29.46875 30.335938 C 18.867188 31.144531 10.414062 40.144531 10.414062 50.886719 C 10.414062 56.070312 12.355469 61.019531 15.878906 64.84375 Z M 15.878906 64.84375 " fill-opacity="1" fill-rule="nonzero"/></svg>