<svg xmlns="http://www.w3.org/2000/svg" xmlns:xlink="http://www.w3.org/1999/xlink" width="400" zoomAndPan="magnify" viewBox="0 0 300 299.999988" height="400" preserveAspectRatio="xMidYMid meet" version="1.0"><defs><clipPath id="a2d6a7ed85"><path d="M 19.5 100 L 127 100 L 127 267 L 19.5 267 Z M 19.5 100 " clip-rule="nonzero"/></clipPath><clipPath id="a9c4ae5f97"><path d="M 56 76 L 280.5 76 L 280.5 295 L 56 295 Z M 56 76 " clip-rule="nonzero"/></clipPath></defs><path fill="#D8AC49" d="M 122.09375 116.921875 L 122.09375 105.765625 C 70.703125 98.46875 23.71875 138.84375 23.71875 191.59375 C 23.71875 220.921875 38.375 246.875 60.734375 262.5625 C 45.765625 246.5625 37.4375 225.46875 37.453125 203.546875 C 37.453125 156.4375 75.234375 118.015625 122.09375 116.921875 " fill-opacity="1" fill-rule="nonzero"/><path fill="#D8AC49" d="M 124.125 243.140625 C 145.453125 243.140625 162.859375 226.171875 163.640625 205.03125 L 163.71875 16.296875 L 198.203125 16.296875 C 197.46875 12.359375 197.09375 8.359375 197.09375 4.34375 L 150 4.34375 L 149.90625 193.078125 C 148.828125 222.21875 117.578125 240.109375 92.046875 226.640625 C 99.453125 236.984375 111.40625 243.125 124.125 243.140625 M 262.609375 80.359375 L 262.609375 69.875 C 249.9375 69.890625 237.53125 66.203125 226.921875 59.265625 C 236.21875 69.96875 248.75 77.375 262.609375 80.359375 " fill-opacity="1" fill-rule="nonzero"/><path fill="#D8AC49" d="M 226.921875 59.25 C 216.53125 47.359375 210.8125 32.109375 210.8125 16.3125 L 198.1875 16.3125 C 201.5 33.953125 211.875 49.46875 226.921875 59.25 M 110.40625 152.015625 C 88.546875 152.03125 70.84375 169.734375 70.8125 191.59375 C 70.828125 206.3125 79 219.796875 92.03125 226.640625 C 87.171875 219.921875 84.546875 211.84375 84.546875 203.546875 C 84.5625 181.703125 102.28125 163.984375 124.125 163.953125 C 128.203125 163.953125 132.125 164.625 135.8125 165.796875 L 135.8125 117.71875 C 130.46875 116.953125 126.453125 116.828125 122.09375 116.90625 L 122.09375 153.84375 C 118.3125 152.640625 114.375 152.015625 110.40625 152.015625 " fill-opacity="1" fill-rule="nonzero"/><path fill="#D8AC49" d="M 262.609375 80.359375 L 262.609375 116.96875 C 238.171875 116.96875 215.5625 109.15625 197.078125 95.890625 L 197.078125 191.59375 C 197.078125 239.390625 158.203125 278.28125 110.40625 278.28125 C 91.9375 278.28125 74.8125 272.453125 60.734375 262.5625 C 77.09375 280.203125 100.078125 290.234375 124.125 290.234375 C 171.921875 290.234375 210.8125 251.34375 210.8125 203.546875 L 210.8125 107.84375 C 229.90625 121.578125 252.828125 128.953125 276.328125 128.921875 L 276.328125 81.8125 C 271.609375 81.8125 267.03125 81.296875 262.59375 80.359375 " fill-opacity="1" fill-rule="nonzero"/><path fill="#000000" d="M 197.078125 191.59375 L 197.078125 95.890625 C 216.171875 109.625 239.09375 116.984375 262.59375 116.953125 L 262.59375 80.359375 C 248.734375 77.375 236.21875 69.96875 226.921875 59.25 C 211.875 49.46875 201.5 33.953125 198.1875 16.3125 L 163.71875 16.3125 L 163.640625 205.03125 C 162.84375 226.171875 145.453125 243.140625 124.125 243.140625 C 111.40625 243.125 99.453125 236.984375 92.046875 226.640625 C 79 219.8125 70.828125 206.3125 70.8125 191.59375 C 70.84375 165 96.703125 145.84375 122.078125 153.84375 L 122.078125 116.921875 C 75.234375 118.015625 37.453125 156.4375 37.453125 203.546875 C 37.453125 226.328125 46.3125 247.078125 60.734375 262.5625 C 75.265625 272.8125 92.625 278.296875 110.40625 278.28125 C 158.203125 278.28125 197.078125 239.390625 197.078125 191.59375 " fill-opacity="1" fill-rule="nonzero"/><g clip-path="url(#a2d6a7ed85)"><path fill="#D8AC49" d="M 58.3125 266.015625 C 34.015625 248.953125 19.515625 221.140625 19.515625 191.609375 C 19.515625 136.390625 68.65625 93.921875 122.671875 101.59375 C 124.75 101.890625 126.296875 103.671875 126.296875 105.765625 L 126.296875 116.921875 C 126.296875 119.203125 124.46875 121.0625 122.1875 121.125 C 77.78125 122.15625 41.65625 159.140625 41.65625 203.546875 C 41.65625 224.46875 49.515625 244.40625 63.796875 259.6875 C 65.28125 261.265625 65.328125 263.703125 63.90625 265.328125 C 62.484375 266.953125 60.078125 267.25 58.3125 266.015625 Z M 27.9375 191.609375 C 27.9375 204.59375 31.03125 217.21875 36.734375 228.546875 C 34.4375 220.5 33.25 212.09375 33.25 203.546875 C 33.25 155.625 70.546875 116.125 117.875 112.890625 L 117.875 109.5 C 70.15625 104.90625 27.9375 142.875 27.9375 191.609375 Z M 27.9375 191.609375 " fill-opacity="1" fill-rule="nonzero"/></g><path fill="#D8AC49" d="M 124.125 247.34375 C 110.078125 247.328125 96.796875 240.5 88.625 229.078125 C 87.484375 227.5 87.59375 225.34375 88.875 223.875 C 90.15625 222.390625 92.28125 222 94 222.90625 C 99.03125 225.5625 104.703125 226.96875 110.390625 226.96875 C 110.390625 226.96875 110.40625 226.96875 110.40625 226.96875 C 129.46875 226.96875 144.953125 212.0625 145.703125 193 L 145.78125 4.34375 C 145.78125 2.015625 147.671875 0.140625 150 0.140625 L 197.09375 0.140625 C 199.40625 0.140625 201.296875 2.015625 201.296875 4.34375 C 201.296875 8.09375 201.640625 11.84375 202.328125 15.53125 C 202.8125 18.109375 200.828125 20.5 198.203125 20.5 L 167.921875 20.5 C 167.84375 211.03125 167.859375 205.0625 167.84375 205.1875 C 166.96875 228.828125 147.765625 247.34375 124.125 247.34375 Z M 108.71875 235.359375 C 131.328125 246.359375 158.40625 230.828125 159.4375 204.953125 L 159.515625 16.296875 C 159.515625 13.96875 161.390625 12.09375 163.71875 12.09375 L 193.3125 12.09375 C 193.1875 10.921875 193.078125 9.734375 193.015625 8.5625 L 154.203125 8.5625 C 154.125 199.09375 154.125 193.109375 154.125 193.234375 C 153.21875 217.609375 132.875 236.3125 108.71875 235.359375 Z M 261.578125 84.4375 C 246.96875 81.265625 233.546875 73.3125 223.75 62.03125 C 222.375 60.4375 222.375 58.078125 223.75 56.5 C 225.140625 54.921875 227.46875 54.59375 229.234375 55.75 C 239.15625 62.234375 250.671875 65.671875 262.53125 65.671875 C 265.15625 65.71875 266.8125 67.71875 266.8125 69.875 C 266.8125 81.515625 266.859375 80.65625 266.71875 81.25 C 266.25 83.421875 263.96875 85.046875 261.578125 84.4375 Z M 254.6875 73.640625 C 255.90625 74.109375 257.140625 74.53125 258.390625 74.921875 L 258.390625 73.953125 C 257.15625 73.890625 255.921875 73.78125 254.6875 73.640625 Z M 254.6875 73.640625 " fill-opacity="1" fill-rule="nonzero"/><path fill="#D8AC49" d="M 90.078125 230.359375 C 75.625 222.78125 66.625 207.921875 66.609375 191.59375 C 66.640625 164.328125 91.46875 143.75 117.875 148.46875 L 117.875 116.90625 C 117.875 114.625 119.71875 112.75 122.015625 112.703125 C 126.828125 112.609375 131.09375 112.796875 136.40625 113.546875 C 138.484375 113.84375 140.015625 115.625 140.015625 117.71875 L 140.015625 165.796875 C 140.015625 167.125 139.375 168.390625 138.296875 169.1875 C 137.21875 169.96875 135.828125 170.203125 134.546875 169.8125 C 111.65625 162.609375 88.78125 180.046875 88.75 203.5625 C 88.75 211 91.0625 218.125 95.4375 224.171875 C 96.59375 225.75 96.5 227.90625 95.21875 229.390625 C 93.9375 230.875 91.8125 231.265625 90.078125 230.359375 Z M 110.40625 156.21875 C 82.046875 156.265625 65.40625 188.046875 81.015625 211.296875 C 75.625 181.15625 102.1875 155.125 131.609375 160.421875 L 131.609375 121.453125 C 129.84375 121.28125 128.0625 121.171875 126.296875 121.109375 L 126.296875 153.84375 C 126.296875 155.1875 125.65625 156.4375 124.578125 157.234375 C 123.484375 158.03125 122.09375 158.25 120.8125 157.859375 C 117.4375 156.78125 113.9375 156.234375 110.40625 156.21875 Z M 224.625 62.78125 C 208.703125 52.421875 197.546875 35.765625 194.0625 17.078125 C 193.578125 14.5 195.5625 12.09375 198.1875 12.09375 L 210.8125 12.09375 C 213.140625 12.09375 215.015625 13.984375 215.015625 16.3125 C 215.015625 31.09375 220.375 45.359375 230.09375 56.484375 C 231.46875 58.078125 231.484375 60.421875 230.109375 62.015625 C 228.734375 63.59375 226.390625 63.9375 224.625 62.78125 Z M 203.484375 20.515625 C 204.75 25.078125 206.53125 29.484375 208.78125 33.609375 C 207.6875 29.34375 207 24.953125 206.734375 20.515625 Z M 203.484375 20.515625 " fill-opacity="1" fill-rule="nonzero"/><g clip-path="url(#a9c4ae5f97)"><path fill="#D8AC49" d="M 57.65625 265.421875 C 56.1875 263.84375 56.15625 261.421875 57.5625 259.796875 C 58.984375 258.171875 61.390625 257.890625 63.15625 259.125 C 77.078125 268.90625 93.421875 274.078125 110.40625 274.078125 C 155.875 274.078125 192.875 237.078125 192.875 191.59375 L 192.875 95.890625 C 192.875 94.3125 193.765625 92.875 195.15625 92.15625 C 196.5625 91.4375 198.25 91.5625 199.53125 92.46875 C 216.890625 104.921875 237.15625 111.859375 258.390625 112.671875 L 258.390625 80.546875 C 258.265625 77.78125 260.796875 75.65625 263.484375 76.234375 C 267.71875 77.140625 272.046875 77.609375 276.328125 77.609375 C 278.65625 77.609375 280.53125 79.484375 280.53125 81.8125 L 280.53125 128.921875 C 280.53125 131.09375 278.859375 133.125 276.1875 133.125 C 254.390625 133.125 233.40625 127.140625 215.015625 115.71875 L 215.015625 203.5625 C 215.015625 253.671875 174.25 294.4375 124.125 294.4375 C 123.546875 294.3125 86.21875 296.234375 57.65625 265.421875 Z M 97.5 281.578125 C 150.921875 299.890625 206.609375 259.921875 206.609375 203.5625 C 206.640625 101.484375 206.515625 107.78125 206.703125 106.921875 C 204.875 105.921875 203.078125 104.859375 201.296875 103.765625 L 201.296875 191.59375 C 201.296875 246.625 152.421875 289.4375 97.5 281.578125 Z M 243.1875 119.5625 C 252.484375 122.5625 262.203125 124.265625 272.125 124.640625 L 272.125 85.890625 C 270.34375 85.78125 268.578125 85.609375 266.8125 85.359375 L 266.8125 116.96875 C 266.8125 119.28125 264.921875 121.171875 262.609375 121.171875 C 256.03125 121.171875 249.546875 120.625 243.1875 119.5625 Z M 243.1875 119.5625 " fill-opacity="1" fill-rule="nonzero"/></g><path fill="#D8AC49" d="M 58.3125 266.015625 C 58.078125 265.84375 57.84375 265.65625 57.65625 265.4375 C 41.921875 248.53125 33.25 226.5625 33.25 203.546875 C 33.25 154.125 72.8125 113.859375 121.984375 112.703125 C 124.421875 112.671875 126.296875 114.609375 126.296875 116.921875 L 126.296875 153.84375 C 126.296875 155.1875 125.65625 156.4375 124.578125 157.234375 C 123.5 158.03125 122.09375 158.265625 120.828125 157.859375 C 117.375 156.765625 113.875 156.21875 110.40625 156.21875 C 90.921875 156.234375 75.046875 172.109375 75.03125 191.609375 C 75.046875 204.78125 82.3125 216.78125 94 222.90625 C 94.578125 223.21875 95.078125 223.65625 95.46875 224.1875 C 102.078125 233.40625 112.796875 238.921875 124.140625 238.9375 C 143.1875 238.9375 158.6875 224.015625 159.4375 204.953125 L 159.515625 16.3125 C 159.515625 13.984375 161.390625 12.09375 163.71875 12.09375 L 198.1875 12.09375 C 200.21875 12.09375 201.953125 13.546875 202.328125 15.53125 C 205.40625 31.96875 215.203125 46.609375 229.21875 55.734375 C 229.546875 55.9375 229.84375 56.203125 230.109375 56.5 C 238.75 66.453125 250.609375 73.46875 263.484375 76.25 C 265.421875 76.671875 266.8125 78.375 266.8125 80.359375 L 266.8125 116.953125 C 266.8125 119.15625 265.109375 121.171875 262.46875 121.171875 C 240.65625 121.171875 219.671875 115.171875 201.296875 103.765625 L 201.296875 191.59375 C 201.296875 241.71875 160.515625 282.484375 110.40625 282.484375 C 90.9375 282.484375 73.09375 276.421875 58.3125 266.015625 Z M 63.515625 259.375 C 77.3125 268.984375 93.5 274.0625 110.328125 274.0625 C 156.03125 274.0625 192.875 236.9375 192.875 191.59375 L 192.875 95.890625 C 192.875 92.46875 196.75 90.46875 199.53125 92.46875 C 216.875 104.953125 237.140625 111.890625 258.390625 112.671875 L 258.390625 83.671875 C 245.21875 80.140625 233.171875 72.6875 224.140625 62.453125 C 209.4375 52.71875 198.90625 37.609375 194.796875 20.515625 L 167.921875 20.515625 L 167.84375 205.046875 C 167.84375 205.09375 167.84375 205.140625 167.84375 205.1875 C 166.96875 228.828125 147.765625 247.34375 124.125 247.34375 C 110.40625 247.328125 97.4375 240.828125 89.203125 229.890625 C 75.265625 222.1875 66.625 207.59375 66.609375 191.609375 C 66.640625 164.296875 91.515625 143.734375 117.875 148.484375 L 117.875 121.34375 C 75.46875 124.578125 41.65625 160.578125 41.65625 203.546875 C 41.65625 224.28125 49.421875 244.078125 63.515625 259.375 Z M 63.515625 259.375 " fill-opacity="1" fill-rule="nonzero"/></svg>