<svg xmlns="http://www.w3.org/2000/svg" xmlns:xlink="http://www.w3.org/1999/xlink" width="100" zoomAndPan="magnify" viewBox="0 0 75 74.999997" height="100" preserveAspectRatio="xMidYMid meet" version="1.0"><path fill="currentColor" d="M 37.5 26.25 C 36.761719 26.25 36.03125 26.320312 35.304688 26.464844 C 34.582031 26.609375 33.878906 26.824219 33.195312 27.105469 C 32.511719 27.390625 31.863281 27.734375 31.25 28.144531 C 30.636719 28.554688 30.066406 29.023438 29.546875 29.546875 C 29.023438 30.066406 28.554688 30.636719 28.144531 31.25 C 27.734375 31.863281 27.390625 32.511719 27.105469 33.195312 C 26.824219 33.878906 26.609375 34.582031 26.464844 35.304688 C 26.320312 36.03125 26.25 36.761719 26.25 37.5 C 26.25 38.238281 26.320312 38.96875 26.464844 39.695312 C 26.609375 40.417969 26.824219 41.121094 27.105469 41.804688 C 27.390625 42.488281 27.734375 43.136719 28.144531 43.75 C 28.554688 44.363281 29.023438 44.933594 29.546875 45.453125 C 30.066406 45.976562 30.636719 46.445312 31.25 46.855469 C 31.863281 47.265625 32.511719 47.609375 33.195312 47.894531 C 33.878906 48.175781 34.582031 48.390625 35.304688 48.535156 C 36.03125 48.679688 36.761719 48.75 37.5 48.75 C 38.238281 48.75 38.96875 48.679688 39.695312 48.535156 C 40.417969 48.390625 41.121094 48.175781 41.804688 47.894531 C 42.488281 47.609375 43.136719 47.265625 43.75 46.855469 C 44.363281 46.445312 44.933594 45.976562 45.453125 45.453125 C 45.976562 44.933594 46.445312 44.363281 46.855469 43.75 C 47.265625 43.136719 47.609375 42.488281 47.894531 41.804688 C 48.175781 41.121094 48.390625 40.417969 48.535156 39.695312 C 48.679688 38.96875 48.75 38.238281 48.75 37.5 C 48.75 36.761719 48.679688 36.03125 48.535156 35.304688 C 48.390625 34.582031 48.175781 33.878906 47.894531 33.195312 C 47.609375 32.511719 47.265625 31.863281 46.855469 31.25 C 46.445312 30.636719 45.976562 30.066406 45.453125 29.546875 C 44.933594 29.023438 44.363281 28.554688 43.75 28.144531 C 43.136719 27.734375 42.488281 27.390625 41.804688 27.105469 C 41.121094 26.824219 40.417969 26.609375 39.695312 26.464844 C 38.96875 26.320312 38.238281 26.25 37.5 26.25 Z M 37.5 18.75 C 38.113281 18.75 38.726562 18.78125 39.335938 18.839844 C 39.949219 18.902344 40.554688 18.992188 41.15625 19.109375 C 41.761719 19.230469 42.355469 19.378906 42.941406 19.558594 C 43.53125 19.734375 44.109375 19.941406 44.675781 20.175781 C 45.242188 20.414062 45.796875 20.675781 46.339844 20.964844 C 46.878906 21.253906 47.40625 21.570312 47.917969 21.910156 C 48.425781 22.25 48.921875 22.617188 49.394531 23.007812 C 49.871094 23.394531 50.324219 23.808594 50.757812 24.242188 C 51.191406 24.675781 51.605469 25.128906 51.992188 25.605469 C 52.382812 26.078125 52.75 26.574219 53.089844 27.082031 C 53.429688 27.59375 53.746094 28.121094 54.035156 28.660156 C 54.324219 29.203125 54.585938 29.757812 54.824219 30.324219 C 55.058594 30.890625 55.265625 31.46875 55.441406 32.058594 C 55.621094 32.644531 55.769531 33.238281 55.890625 33.84375 C 56.007812 34.445312 56.097656 35.050781 56.160156 35.664062 C 56.21875 36.273438 56.25 36.886719 56.25 37.5 C 56.25 38.113281 56.21875 38.726562 56.160156 39.335938 C 56.097656 39.949219 56.007812 40.554688 55.890625 41.15625 C 55.769531 41.761719 55.621094 42.355469 55.441406 42.941406 C 55.265625 43.53125 55.058594 44.109375 54.824219 44.675781 C 54.585938 45.242188 54.324219 45.796875 54.035156 46.339844 C 53.746094 46.878906 53.429688 47.40625 53.089844 47.917969 C 52.75 48.425781 52.382812 48.921875 51.992188 49.394531 C 51.605469 49.871094 51.191406 50.324219 50.757812 50.757812 C 50.324219 51.191406 49.871094 51.605469 49.394531 51.992188 C 48.921875 52.382812 48.425781 52.75 47.917969 53.089844 C 47.40625 53.429688 46.878906 53.746094 46.339844 54.035156 C 45.796875 54.324219 45.242188 54.585938 44.675781 54.824219 C 44.109375 55.058594 43.53125 55.265625 42.941406 55.441406 C 42.355469 55.621094 41.761719 55.769531 41.15625 55.890625 C 40.554688 56.007812 39.949219 56.097656 39.335938 56.160156 C 38.726562 56.21875 38.113281 56.25 37.5 56.25 C 36.886719 56.25 36.273438 56.21875 35.664062 56.160156 C 35.050781 56.097656 34.445312 56.007812 33.84375 55.890625 C 33.238281 55.769531 32.644531 55.621094 32.058594 55.441406 C 31.46875 55.265625 30.890625 55.058594 30.324219 54.824219 C 29.757812 54.585938 29.203125 54.324219 28.660156 54.035156 C 28.121094 53.746094 27.59375 53.429688 27.082031 53.089844 C 26.574219 52.75 26.078125 52.382812 25.605469 51.992188 C 25.128906 51.605469 24.675781 51.191406 24.242188 50.757812 C 23.808594 50.324219 23.394531 49.871094 23.007812 49.394531 C 22.617188 48.921875 22.25 48.425781 21.910156 47.917969 C 21.570312 47.40625 21.253906 46.878906 20.964844 46.339844 C 20.675781 45.796875 20.414062 45.242188 20.175781 44.675781 C 19.941406 44.109375 19.734375 43.53125 19.558594 42.941406 C 19.378906 42.355469 19.230469 41.761719 19.109375 41.15625 C 18.992188 40.554688 18.902344 39.949219 18.839844 39.335938 C 18.78125 38.726562 18.75 38.113281 18.75 37.5 C 18.75 36.886719 18.78125 36.273438 18.839844 35.664062 C 18.902344 35.050781 18.992188 34.445312 19.109375 33.84375 C 19.230469 33.238281 19.378906 32.644531 19.558594 32.058594 C 19.734375 31.46875 19.941406 30.890625 20.175781 30.324219 C 20.414062 29.757812 20.675781 29.203125 20.964844 28.660156 C 21.253906 28.121094 21.570312 27.59375 21.910156 27.082031 C 22.25 26.574219 22.617188 26.078125 23.007812 25.605469 C 23.394531 25.128906 23.808594 24.675781 24.242188 24.242188 C 24.675781 23.808594 25.128906 23.394531 25.605469 23.007812 C 26.078125 22.617188 26.574219 22.25 27.082031 21.910156 C 27.59375 21.570312 28.121094 21.253906 28.660156 20.964844 C 29.203125 20.675781 29.757812 20.414062 30.324219 20.175781 C 30.890625 19.941406 31.46875 19.734375 32.058594 19.558594 C 32.644531 19.378906 33.238281 19.230469 33.84375 19.109375 C 34.445312 18.992188 35.050781 18.902344 35.664062 18.839844 C 36.273438 18.78125 36.886719 18.75 37.5 18.75 Z M 61.875 17.8125 C 61.875 18.121094 61.84375 18.425781 61.785156 18.726562 C 61.726562 19.027344 61.636719 19.320312 61.519531 19.605469 C 61.402344 19.890625 61.257812 20.160156 61.085938 20.417969 C 60.914062 20.671875 60.71875 20.910156 60.503906 21.128906 C 60.285156 21.34375 60.046875 21.539062 59.792969 21.710938 C 59.535156 21.882812 59.265625 22.027344 58.980469 22.144531 C 58.695312 22.261719 58.402344 22.351562 58.101562 22.410156 C 57.800781 22.46875 57.496094 22.5 57.1875 22.5 C 56.878906 22.5 56.574219 22.46875 56.273438 22.410156 C 55.972656 22.351562 55.679688 22.261719 55.394531 22.144531 C 55.109375 22.027344 54.839844 21.882812 54.582031 21.710938 C 54.328125 21.539062 54.089844 21.34375 53.871094 21.128906 C 53.65625 20.910156 53.460938 20.671875 53.289062 20.417969 C 53.117188 20.160156 52.972656 19.890625 52.855469 19.605469 C 52.738281 19.320312 52.648438 19.027344 52.589844 18.726562 C 52.53125 18.425781 52.5 18.121094 52.5 17.8125 C 52.5 17.503906 52.53125 17.199219 52.589844 16.898438 C 52.648438 16.597656 52.738281 16.304688 52.855469 16.019531 C 52.972656 15.734375 53.117188 15.464844 53.289062 15.207031 C 53.460938 14.953125 53.65625 14.714844 53.871094 14.496094 C 54.089844 14.28125 54.328125 14.085938 54.582031 13.914062 C 54.839844 13.742188 55.109375 13.597656 55.394531 13.480469 C 55.679688 13.363281 55.972656 13.273438 56.273438 13.214844 C 56.574219 13.15625 56.878906 13.125 57.1875 13.125 C 57.496094 13.125 57.800781 13.15625 58.101562 13.214844 C 58.402344 13.273438 58.695312 13.363281 58.980469 13.480469 C 59.265625 13.597656 59.535156 13.742188 59.792969 13.914062 C 60.046875 14.085938 60.285156 14.28125 60.503906 14.496094 C 60.71875 14.714844 60.914062 14.953125 61.085938 15.207031 C 61.257812 15.464844 61.402344 15.734375 61.519531 16.019531 C 61.636719 16.304688 61.726562 16.597656 61.785156 16.898438 C 61.84375 17.199219 61.875 17.503906 61.875 17.8125 Z M 37.5 7.5 C 28.222656 7.5 26.707031 7.527344 22.390625 7.71875 C 19.453125 7.855469 17.480469 8.25 15.648438 8.96875 C 14.097656 9.535156 12.746094 10.414062 11.597656 11.605469 C 10.410156 12.753906 9.53125 14.101562 8.957031 15.652344 C 8.246094 17.492188 7.851562 19.460938 7.71875 22.394531 C 7.523438 26.53125 7.5 27.980469 7.5 37.5 C 7.5 46.777344 7.527344 48.292969 7.71875 52.609375 C 7.855469 55.546875 8.25 57.519531 8.957031 59.347656 C 9.550781 60.882812 10.429688 62.234375 11.59375 63.398438 C 12.753906 64.5625 14.105469 65.441406 15.640625 66.035156 C 17.492188 66.75 19.464844 67.148438 22.390625 67.285156 C 26.53125 67.476562 27.980469 67.5 37.5 67.5 C 46.777344 67.5 48.292969 67.472656 52.609375 67.28125 C 55.542969 67.144531 57.515625 66.75 59.347656 66.042969 C 60.894531 65.46875 62.246094 64.589844 63.398438 63.410156 C 64.585938 62.261719 65.464844 60.910156 66.039062 59.359375 C 66.75 57.511719 67.148438 55.535156 67.289062 52.609375 C 67.476562 48.46875 67.5 47.019531 67.5 37.5 C 67.5 28.222656 67.472656 26.707031 67.28125 22.390625 C 67.144531 19.457031 66.75 17.480469 66.03125 15.648438 C 65.460938 14.097656 64.582031 12.75 63.394531 11.597656 C 62.246094 10.410156 60.898438 9.53125 59.347656 8.957031 C 57.507812 8.246094 55.535156 7.851562 52.605469 7.71875 C 48.46875 7.523438 47.019531 7.5 37.5 7.5 Z M 37.5 0 C 47.6875 0 48.960938 0.0390625 52.957031 0.226562 C 56.953125 0.414062 59.671875 1.039062 62.0625 1.976562 C 64.597656 2.925781 66.8125 4.367188 68.707031 6.296875 C 70.636719 8.195312 72.078125 10.410156 73.03125 12.945312 C 73.957031 15.332031 74.585938 18.054688 74.78125 22.046875 C 74.976562 26.042969 75 27.3125 75 37.5 C 75 47.6875 74.960938 48.960938 74.773438 52.957031 C 74.585938 56.953125 73.957031 59.671875 73.023438 62.0625 C 72.542969 63.308594 71.9375 64.492188 71.210938 65.609375 C 70.480469 66.730469 69.644531 67.761719 68.703125 68.707031 C 67.757812 69.652344 66.722656 70.488281 65.605469 71.21875 C 64.484375 71.945312 63.300781 72.550781 62.054688 73.03125 C 59.667969 73.957031 56.945312 74.585938 52.953125 74.78125 C 48.957031 74.976562 47.6875 75 37.5 75 C 27.3125 75 26.039062 74.960938 22.042969 74.773438 C 18.046875 74.585938 15.328125 73.957031 12.9375 73.023438 C 10.402344 72.074219 8.1875 70.632812 6.292969 68.703125 C 4.363281 66.804688 2.921875 64.59375 1.96875 62.0625 C 1.039062 59.671875 0.414062 56.953125 0.226562 52.957031 C 0.0390625 48.964844 0 47.6875 0 37.5 C 0 27.3125 0.0390625 26.039062 0.226562 22.042969 C 0.414062 18.046875 1.039062 15.328125 1.976562 12.9375 C 2.921875 10.402344 4.363281 8.1875 6.292969 6.292969 C 8.1875 4.363281 10.402344 2.921875 12.9375 1.96875 C 15.328125 1.039062 18.046875 0.414062 22.042969 0.226562 C 26.039062 0.0390625 27.3125 0 37.5 0 Z M 37.5 0 " fill-opacity="1" fill-rule="nonzero"/></svg>